<svg id="Layer_1" enable-background="new 0 0 60 60" height="50" viewBox="0 0 60 60" width="50" xmlns="http://www.w3.org/2000/svg"><path d="m7.0018311 33.5299683h7.4199829v-7.6099854h-7.4199829c-.5599976 0-1 .4400024-1 1v5.6099854c0 .5499878.4400024 1 1 1z"/><path d="m53.0018311 25.9199829h-7.4299927v7.6099854h7.4299927c.5499878 0 1-.4500122 1-1v-5.6099854c0-.5599975-.4500123-1-1-1z"/><path d="m45.5718384 35.5299683v16.4683227h-2v-38.418335h-27.1500244v38.418335h-2v-16.4683227h-6.1599732v16.4683227h-1.2636108c-.5527344 0-1 .4472656-1 1s.4472656 1 1 1h2.255127c.0030517 0 .0054321.001709.0084838.001709h5.3399658c-.0001831-.0005493-.0003052-.0011597-.0004883-.001709h2.8120728c.0029907 0 .0054321.001709.0084229.001709h7.3099976c-.0029907 0-.0054321-.001709-.0084229-.001709h10.546936c-.0030518 0-.0054321.001709-.0084839.001709h7.3099976c.0029907 0 .0054321-.001709.0084229-.001709h2.8120728c-.0001832.0005493-.0003053.0011597-.0004884.001709h5.3499756c.0029907 0 .0054321-.001709.0084229-.001709h2.2479858c.5527344 0 1-.4472656 1-1s-.4472656-1-1-1h-1.2564087v-16.4683227zm-10.670044-19.0499878c0-.5599976.4500122-1 1-1h2.5700073c.5500488 0 1 .4400024 1 1 0 .5499878-.4499512 1-1 1h-1.5700073v1.5599976c0 .5499878-.4399414 1-1 1-.5499878 0-1-.4500122-1-1zm0 6.6199951c0-.5499878.4500122-1 1-1h2.5700073c.5500488 0 1 .4500122 1 1s-.4499512 1-1 1h-1.5700073v1.5599976c0 .5599976-.4399414 1-1 1-.5499878 0-1-.4400024-1-1zm0 6.6199951c0-.5499878.4500122-1 1-1h2.5700073c.5500488 0 1 .4500122 1 1s-.4499512 1-1 1h-1.5700073v1.5700073c0 .5499878-.4399414 1-1 1-.5499878 0-1-.4500122-1-1zm-7.1899414-13.2399902c0-.5599976.4499512-1 1-1h2.5699463c.5500488 0 1 .4400024 1 1 0 .5499878-.4499512 1-1 1h-1.5699463v1.5599976c0 .5499878-.4400024 1-1 1-.5500488 0-1-.4500122-1-1zm0 6.6199951c0-.5499878.4499512-1 1-1h2.5699463c.5500488 0 1 .4500122 1 1s-.4499512 1-1 1h-1.5699463v1.5599976c0 .5599976-.4400024 1-1 1-.5500488 0-1-.4400024-1-1zm0 6.6199951c0-.5499878.4499512-1 1-1h2.5699463c.5500488 0 1 .4500122 1 1s-.4499512 1-1 1h-1.5699463v1.5700073c0 .5499878-.4400024 1-1 1-.5500488 0-1-.4500122-1-1zm-7.1900024-13.2399902c0-.5599976.4499512-1 1-1h2.5699463c.5500488 0 1 .4400024 1 1 0 .5499878-.4499512 1-1 1h-1.5699463v1.5599976c0 .5499878-.4400024 1-1 1-.5500488 0-1-.4500122-1-1zm0 6.6199951c0-.5499878.4499512-1 1-1h2.5699463c.5500488 0 1 .4500122 1 1s-.4499512 1-1 1h-1.5699463v1.5599976c0 .5599976-.4400024 1-1 1-.5500488 0-1-.4400024-1-1zm0 6.6199951c0-.5499878.4499512-1 1-1h2.5699463c.5500488 0 1 .4500122 1 1s-.4499512 1-1 1h-1.5699463v1.5700073c0 .5499878-.4400024 1-1 1-.5500488 0-1-.4500122-1-1zm3.2099609 7.9400024c0-.5599976.4500122-1 1-1h10.5300293c.5599976 0 1 .4400024 1 1v14.3383179h-12.5300293z"/><path d="m45.8118286 7c0-.5500488-.4500122-1-1-1h-29.6199951c-.5599976 0-1 .4499512-1 1v3.5799561c0 .5499878.4400024 1 1 1h29.6199951c.5499878 0 1-.4500122 1-1z"/></svg>