<svg id="Layer_1" enable-background="new 0 0 52 52" height="50" viewBox="0 0 52 52" width="50" xmlns="http://www.w3.org/2000/svg"><g id="_x36_3"><g><g><path d="m37.8800049 10.6199951h-32.2700195c-1.845268 0-3.4000244 1.4856043-3.4000244 3.4500122v1.0499878h39.080017v-1.0499878c0-1.9100342-1.5199585-3.4500122-3.4099731-3.4500122zm-32.088562 3.0904541c-.4603271 0-.8335571-.3776855-.8335571-.8435669 0-.4659424.37323-.8436279.8335571-.8436279s.8335571.3776855.8335571.8436279c0 .4658814-.37323.8435669-.8335571.8435669zm2.2280273 0c-.4603882 0-.8335571-.3776855-.8335571-.8435669 0-.4659424.3731689-.8436279.8335571-.8436279.4603271 0 .8334961.3776855.8334961.8436279 0 .4658814-.3731689.8435669-.8334961.8435669zm2.2279663 0c-.4603271 0-.8335571-.3776855-.8335571-.8435669 0-.4659424.37323-.8436279.8335571-.8436279.4603882 0 .8335571.3776855.8335571.8436279.0000001.4658814-.3731689.8435669-.8335571.8435669z"/><path d="m7.0499878 23.9499512h27.3200073l6.9199829-6.5299683v-.2999878h-39.0899658v20.7999878c0 1.9000244 1.5299683 3.460022 3.4099731 3.460022h32.2700195c1.8900146 0 3.4099731-1.5599976 3.4099731-3.460022v-9.2700195l-2.1400146 2.3200073-4.5799561 3.8500366c-.1500244.7199707-.5 1.3899536-1.0200195 1.9099731-.7199707.7299805-3.9699707 3.039978-6.2199707 3.039978-1.0200195 0-1.6600342-.4299927-2.0100098-.789978-2.5700073-2.5999756 2.1599731-8.2200317 2.2099609-8.2700195.5200195-.5299683 1.1700439-.8800049 1.8900146-1.039978l3.2700195-3.9899902h-25.6400144c-.4799805 0-.8599854-.3800049-.8599854-.8599854v-.0100098c0-.4700317.3800049-.8600463.8599854-.8600463zm-.8599854-2.7799683c0-.4799805.3800049-.8599854.8599854-.8599854h16.8200073c.4699707 0 .8599854.3800049.8599854.8599854v.0100098c0 .4699707-.3900146.8599854-.8599854.8599854h-16.8200073c-.4799805 0-.8599854-.3900146-.8599854-.8599854z"/></g><g><g><g><g><g><g><path d="m49.7999878 15.6199951c0 .5299683-.2299805 1.1199951-.6799927 1.5999756l-11.3499756 12.2999878-3.5600586 2.9899902-2.4799805-2.5 2.960022-3.5999756 12.1499634-11.4899902c.8300171-.789978 1.9700318-.9199829 2.5800171-.2999878.2600098.2600098.3800049.6099854.3800049 1z"/></g></g></g><g><path d="m30.4835739 31.5903168c-.5663471-.0539894-1.1251068.1139278-1.5302677.523983-.7762432.7856216-3.0911999 4.5674515-2.2142868 5.4549561.8769569.8875542 4.6136398-1.4553719 5.389883-2.2409897.4051628-.4100571.5710754-.9755707.5177307-1.5487595z"/></g></g></g></g></g></g></svg>