<svg height="50" viewBox="0 0 64 64" width="50" xmlns="http://www.w3.org/2000/svg"><rect fill="#4aa5ff" height="43" rx="3" width="53" x="3" y="16"/><rect fill="#e6f3ff" height="37" rx="3" width="53" x="3" y="22"/><g fill="#4aa5ff"><path d="m58 9h-21a3 3 0 0 0 -3 3v13a3 3 0 0 0 3 3h2.90674c-.22874 1.51154-1.03574 4.283-3.90674 5 0 0 9.90564.89587 11.767-5h10.233a3 3 0 0 0 3-3v-13a3 3 0 0 0 -3-3z"/><path d="m24 30h-15a1 1 0 0 1 0-2h15a1.00011 1.00011 0 0 1 0 2z"/><path d="m31 35h-22a1.00011 1.00011 0 0 1 0-2h22a1.00011 1.00011 0 0 1 0 2z"/><path d="m31 40h-22a1.00011 1.00011 0 0 1 0-2h22a1.00011 1.00011 0 0 1 0 2z"/><path d="m31 45h-22a1.00011 1.00011 0 0 1 0-2h22a1.00011 1.00011 0 0 1 0 2z"/></g><path d="m43 23a.99676.99676 0 0 1 -.707-.293l-3-3a.99893.99893 0 0 1 -.09277-1.30664l3-4a.99979.99979 0 0 1 1.59956 1.19927l-2.47945 3.30659 2.38666 2.38678a1.00661 1.00661 0 0 1 -.707 1.707z" fill="#e6f3ff"/><path d="m53 23a1.0066 1.0066 0 0 1 -.707-1.707l2.38668-2.38671-2.47948-3.30668a.9998.9998 0 0 1 1.59964-1.19917l3 4a.99893.99893 0 0 1 -.09284 1.30656l-3 3a.99676.99676 0 0 1 -.707.293z" fill="#e6f3ff"/><path d="m46 25a1.005 1.005 0 0 1 -.93992-1.34181l4-11a1.00027 1.00027 0 0 1 1.87986.68364l-4 11a1.00028 1.00028 0 0 1 -.93994.65817z" fill="#e6f3ff"/><path d="m56.2594 30.05939a.97646.97646 0 0 0 -1.2594.94061v25a2.00229 2.00229 0 0 1 -2 2h-47a2.00229 2.00229 0 0 1 -2-2v-31a2.00229 2.00229 0 0 1 2-2h24.99994a1.00009 1.00009 0 0 0 .00006-2h-25a3.95426 3.95426 0 0 0 -2 .55634v-2.55634a2.00229 2.00229 0 0 1 2-2h24.99994a1.00009 1.00009 0 0 0 .00006-2h-25a4.00427 4.00427 0 0 0 -4 4v37a4.00427 4.00427 0 0 0 4 4h47a4.00427 4.00427 0 0 0 4-4v-24.99994a.92712.92712 0 0 0 -.7406-.94067z" fill="#21257c"/><path d="m58 8h-21a4.00427 4.00427 0 0 0 -4 4v13a4.00427 4.00427 0 0 0 4 4h1.65527a4.16119 4.16119 0 0 1 -2.8974 3.0293 1.00322 1.00322 0 0 0 .15229 1.96679c3.55054.15411 10.11074.04153 12.54784-4.99609h9.542a4.00427 4.00427 0 0 0 4-4v-13a4.00427 4.00427 0 0 0 -4-4zm2 17a2.00229 2.00229 0 0 1 -2 2h-10.23291a1.00011 1.00011 0 0 0 -.95361.69922c-.96875 3.06836-4.6792 4.001-7.46631 4.25781.62677-.74542 2.78424-4.76.55957-4.957h-2.90674a2.00229 2.00229 0 0 1 -2-2v-13.00003a2.00229 2.00229 0 0 1 2-2h21a2.00229 2.00229 0 0 1 2 2z" fill="#21257c"/><rect fill="#21257c" height="4" rx="1" width="11" x="8" y="48"/><rect fill="#4aa5ff" height="4" rx="1" width="4" x="21" y="48"/><circle cx="8" cy="19" fill="#e6f3ff" r="1"/><circle cx="11" cy="19" fill="#e6f3ff" r="1"/><circle cx="14" cy="19" fill="#e6f3ff" r="1"/></svg>